<svg xmlns="http://www.w3.org/2000/svg" viewBox="0 0 635.09 58.6"><defs><style>.cls-1{fill:#191d25;}.cls-2{fill:#2d3242;}.cls-3{fill:#505d75;}</style></defs><g id="Calque_2" data-name="Calque 2"><g id="Calque_1-2" data-name="Calque 1"><path class="cls-1" d="M42.64,44.24H15a1.49,1.49,0,1,1,0-3H42.64a1.49,1.49,0,1,1,0,3Z"/><path class="cls-1" d="M42.65,44.24a1.49,1.49,0,0,1-1.35-.85L26,11.21a1.49,1.49,0,1,1,2.69-1.27L44,42.12a1.48,1.48,0,0,1-.71,2A1.41,1.41,0,0,1,42.65,44.24Z"/><path class="cls-1" d="M15,44.24A1.48,1.48,0,0,1,13.73,42l16-24.74a1.5,1.5,0,0,1,1.25-.69H58.76a1.49,1.49,0,0,1,1.31.78A1.5,1.5,0,0,1,60,18.82L43.89,43.57A1.49,1.49,0,0,1,41.4,42L56,19.5H31.75L16.22,43.56A1.48,1.48,0,0,1,15,44.24Z"/><path class="cls-1" d="M72,44.89a1.49,1.49,0,0,1-1.33-.83L50.93,4.19A1.49,1.49,0,1,1,53.6,2.88L73.28,42.74a1.49,1.49,0,0,1-.67,2A1.55,1.55,0,0,1,72,44.89Z"/><path class="cls-1" d="M32.68,11.27H22.07a1.49,1.49,0,0,1,0-3H32.68a1.49,1.49,0,1,1,0,3Z"/><path class="cls-1" d="M52.27,5H47a1.49,1.49,0,1,1,0-3h5.31a1.49,1.49,0,0,1,0,3Z"/><path class="cls-1" d="M15,57.73a15,15,0,1,1,15-15A15,15,0,0,1,15,57.73Zm0-27a12,12,0,1,0,12,12A12,12,0,0,0,15,30.76Z"/><path class="cls-1" d="M72,57.73a15,15,0,1,1,15-15A15,15,0,0,1,72,57.73Zm0-27a12,12,0,1,0,12,12A12,12,0,0,0,72,30.76Z"/><path class="cls-2" d="M130.82,1l15.77,56.65H130.07l-3.36-12.29H109.65L106,57.65H99.61L116.37,1ZM111.27,39.68h13.9l-6.68-25.11Z"/><path class="cls-2" d="M167.46,1V52h23.29v5.69H151V1Z"/><path class="cls-2" d="M210.67,1V52H234v5.69H194.23V1Z"/><path class="cls-2" d="M274.13,1V6.68h-20.3V23.82h17.06v5.69H253.83V52h23.74v5.69H237.4V1Z"/><path class="cls-2" d="M323.64,1V6.14L296.42,52h25.19v5.69H278.24V52L305.13,6.68h-23V1Z"/><path class="cls-3" d="M329.16,57.65V1h24.45Q374.4,1,374.4,17.64q0,16.81-23.12,16.81H345.6v23.2ZM345.6,29.22h3.69q9,0,9-11.87,0-11.13-9-11.12H345.6Z"/><path class="cls-3" d="M403.08,0q24.74,0,24.74,29.3T402.63,58.6q-25.2,0-25.2-30Q377.43,0,403.08,0Zm-.45,4.52q-4.65,0-6.29,5.13T394.7,29.3q0,14.54,1.64,19.65t6.29,5.13c3.09,0,5.19-1.71,6.28-5.13s1.64-10,1.64-19.65S410,13.1,408.91,9.67,405.72,4.52,402.63,4.52Z"/><path class="cls-3" d="M477.66,1V39q0,19.56-21.62,19.55T434.5,39V1h16.44V39.51q0,7.47,2.13,10.21c1.43,1.83,4.06,2.74,7.91,2.74q11.16,0,11.16-13.45V1Z"/><path class="cls-3" d="M486.59,57.65V1H511q20.79,0,20.8,16.64,0,16.81-23.12,16.81H503v23.2ZM503,29.22h3.7q9,0,9-11.87,0-11.13-9-11.12H503Z"/><path class="cls-3" d="M560.51,0q24.74,0,24.73,29.3T560.05,58.6q-25.2,0-25.19-30Q534.86,0,560.51,0Zm-.46,4.52q-4.65,0-6.29,5.13T552.12,29.3q0,14.54,1.64,19.65t6.29,5.13c3.1,0,5.19-1.71,6.29-5.13S568,39,568,29.3s-.55-16.2-1.64-19.63S563.15,4.52,560.05,4.52Z"/><path class="cls-3" d="M635.09,1V39q0,19.56-21.63,19.55T591.92,39V1h16.44V39.51q0,7.47,2.14,10.21c1.42,1.83,4.06,2.74,7.9,2.74q11.18,0,11.17-13.45V1Z"/></g></g></svg>